# xmcd
#
# Track frame offsets: 
#        150
#        12670
#        26707
#        42805
#        57747
#        69125
#        85667
#        100417
#        123892
#        136910
#        166727
#
# Disc length: 2438 seconds
#
# Revision: 0
# Processed by: cddbd v1.5.2PL0 Copyright (c) Steve Scherf et al.
# Submitted via: ExactAudioCopyFreeDBPlugin 1.0
#
DISCID=8a09840b
DTITLE=Willie Nelson and Kris Kristofferson - Music From Songwriter {201
DTITLE=1 Wounded Bird WOU 9531}
DYEAR=1984
DGENRE=Soundtrack
TTITLE0=How Do You Feel About Fooling Around
TTITLE1=Songwriter
TTITLE2=Who'll Buy My Memories
TTITLE3=Write Your Own Songs
TTITLE4=Nobody Said It Was Going To Be Easy
TTITLE5=Good Times
TTITLE6=Eye Of The Storm
TTITLE7=Crossing The Border
TTITLE8=Down To Her Socks
TTITLE9=Under The Gun
TTITLE10=The Final Attraction
EXTD=
EXTT0=
EXTT1=
EXTT2=
EXTT3=
EXTT4=
EXTT5=
EXTT6=
EXTT7=
EXTT8=
EXTT9=
EXTT10=
PLAYORDER=
